<svg id="Group_522" data-name="Group 522" xmlns="http://www.w3.org/2000/svg" width="797.496" height="741.617" viewBox="0 0 797.496 741.617">
  <ellipse id="Ellipse_60" data-name="Ellipse 60" cx="398.748" cy="18" rx="398.748" ry="18" transform="translate(0 705.617)" fill="#e6e6e6"/>
  <path id="Path_2518" data-name="Path 2518" d="M885.252,252.139h-4V142.593a63.4,63.4,0,0,0-63.4-63.4H585.765a63.4,63.4,0,0,0-63.4,63.4V743.568a63.4,63.4,0,0,0,63.4,63.4H817.851a63.4,63.4,0,0,0,63.4-63.4V330.115h4Z" transform="translate(-201.252 -79.191)" fill="#3f3d56"/>
  <path id="Path_2519" data-name="Path 2519" d="M820.409,95.687H790.114a22.495,22.495,0,0,1-20.827,30.991H636.328A22.495,22.495,0,0,1,615.5,95.686h-28.3a47.348,47.348,0,0,0-47.348,47.348V743.127a47.348,47.348,0,0,0,47.348,47.348h233.2a47.348,47.348,0,0,0,47.348-47.348V143.034a47.348,47.348,0,0,0-47.348-47.348Z" transform="translate(-201.252 -79.191)" fill="#fff"/>
  <path id="Path_2520" data-name="Path 2520" d="M716.047,747.97a89.859,89.859,0,1,1,66.448-29.413l18.765,21.036-9.364,3.972c-14.486,6.145-28.662.166-36.619-4.606a89.971,89.971,0,0,1-39.23,9.012Zm0-164.948a75.184,75.184,0,1,0,36.144,141.124l4.009-2.2,3.727,2.652a39.423,39.423,0,0,0,14.224,6.508l-11.808-13.237L767.519,713a74.477,74.477,0,0,0,23.712-54.8,75.27,75.27,0,0,0-75.184-75.184Z" transform="translate(-201.252 -79.191)" fill="#e6e6e6"/>
  <path id="Path_2521" data-name="Path 2521" d="M798.52,658.207a82.441,82.441,0,1,0-42.82,72.328c5.7,4.056,19.609,12.147,33.348,6.319L772.51,718.315A82.24,82.24,0,0,0,798.52,658.207Z" transform="translate(-201.252 -79.191)" fill="#fff"/>
  <rect id="Rectangle_77" data-name="Rectangle 77" width="58.932" height="5.473" transform="translate(472.318 562.153)" fill="#6c63ff"/>
  <rect id="Rectangle_78" data-name="Rectangle 78" width="102.714" height="5.473" transform="translate(472.318 581.085)" fill="#e6e6e6"/>
  <rect id="Rectangle_79" data-name="Rectangle 79" width="102.613" height="5.473" transform="translate(472.318 600.016)" fill="#e6e6e6"/>
  <path id="Path_2522" data-name="Path 2522" d="M716.047,348.97a89.859,89.859,0,1,1,66.448-29.413l18.765,21.036-9.364,3.972c-14.486,6.145-28.662.166-36.619-4.606A89.972,89.972,0,0,1,716.047,348.97Zm0-164.948a75.184,75.184,0,1,0,36.144,141.124l4.009-2.2,3.727,2.652a39.423,39.423,0,0,0,14.224,6.508l-11.808-13.237L767.519,314a74.477,74.477,0,0,0,23.712-54.8,75.27,75.27,0,0,0-75.184-75.184Z" transform="translate(-201.252 -79.191)" fill="#e6e6e6"/>
  <path id="Path_2523" data-name="Path 2523" d="M798.52,259.207a82.441,82.441,0,1,0-42.82,72.328c5.7,4.056,19.609,12.147,33.348,6.319L772.51,319.315A82.24,82.24,0,0,0,798.52,259.207Z" transform="translate(-201.252 -79.191)" fill="#fff"/>
  <rect id="Rectangle_80" data-name="Rectangle 80" width="58.932" height="5.473" transform="translate(472.318 163.153)" fill="#6c63ff"/>
  <rect id="Rectangle_81" data-name="Rectangle 81" width="102.714" height="5.473" transform="translate(472.318 182.085)" fill="#e6e6e6"/>
  <rect id="Rectangle_82" data-name="Rectangle 82" width="102.613" height="5.473" transform="translate(472.318 201.016)" fill="#e6e6e6"/>
  <circle id="Ellipse_61" data-name="Ellipse 61" cx="13" cy="13" r="13" transform="translate(616.031 251.446)" fill="#e6e6e6"/>
  <circle id="Ellipse_62" data-name="Ellipse 62" cx="13" cy="13" r="13" transform="translate(616.031 650.446)" fill="#e6e6e6"/>
  <path id="Path_2524" data-name="Path 2524" d="M168.77,237.79l-6.232,31.164,29.086,21.814,13.5-40.512Z" fill="#9f616a"/>
  <circle id="Ellipse_63" data-name="Ellipse 63" cx="28.047" cy="28.047" r="28.047" transform="translate(164.096 210.263)" fill="#9f616a"/>
  <path id="Path_2525" data-name="Path 2525" d="M332.626,532.011s21.815,104.918,24.931,115.306,0,11.427,0,11.427-4.155,3.116-1.039,4.155-6.233,6.233-6.233,6.233-4.155,19.737-6.233,23.892-11.427,30.124-12.466,30.124-6.233,15.582-6.233,15.582,12.465,19.737,25.97,11.427l5.194-9.349,41.551-61.289s17.659-19.737,13.5-43.629l2.078,24.931,4.155,81.026s-11.427,7.272-3.116,18.7c0,0,21.815,7.272,31.164-4.155,0,0,2.078-6.233-1.039-9.349s-3.116-3.116-1.039-5.194,5.194-6.233,5.194-8.31v-8.31l5.194-94.53s-14.543-95.569-25.97-100.762S332.626,532.011,332.626,532.011Z" transform="translate(-201.252 -79.191)" fill="#2f2e41"/>
  <path id="Path_2526" data-name="Path 2526" d="M415.729,756.389s-13.5,25.97-2.078,29.086a92.931,92.931,0,0,0,21.815,3.116s29.086,22.853,40.513,11.427-5.194-20.776-5.194-20.776-20.776-14.543-21.815-18.7S415.729,756.389,415.729,756.389Z" transform="translate(-201.252 -79.191)" fill="#2f2e41"/>
  <path id="Path_2527" data-name="Path 2527" d="M325.874,737.172s-23.337,26.541-13.3,32.835a92.933,92.933,0,0,0,19.975,9.3s21.215,30.3,35.463,22.677,1.05-21.389,1.05-21.389-15.67-19.94-15.46-24.218S325.874,737.172,325.874,737.172Z" transform="translate(-201.252 -79.191)" fill="#2f2e41"/>
  <path id="Path_2528" data-name="Path 2528" d="M433.388,533.05s-4.155,8.31-20.776,5.194-82.064,0-82.064,0,3.636-74.273-4.675-118.941,24.411-70.118,24.411-70.118L360.673,338.8C371.061,337.757,393,370,393,370c7.635,1.278,20,35.611,25.96,66.006,2.836,14.5,5.371,29.99,7.5,44.232C430.781,509.209,433.388,533.05,433.388,533.05Z" transform="translate(-201.252 -79.191)" fill="#6c63ff"/>
  <path id="Path_2529" data-name="Path 2529" d="M360.583,300.037s-5.244-11.536,8.39-16.78c0,0,11.536-18.878,34.61-6.293,0,0,15.732,6.293,15.732,23.073s5.244,19.927,5.244,19.927-7.809-8.011-9.907-14.3-18.41-7.72-24.7-1.428-22.024,5.244-22.024,5.244l1.049,23.073s-5.244-13.634-7.341-13.634S357.437,300.037,360.583,300.037Z" transform="translate(-201.252 -79.191)" fill="#2f2e41"/>
  <path id="Path_2530" data-name="Path 2530" d="M562.274,537.495c-8.265,4.957-22.991,11.168-38.039,4.785l-9.728-4.126L534,516.3a93.1,93.1,0,1,1,28.274,21.193Zm-37.349-83.884a77.365,77.365,0,0,0,24.632,56.921l5.377,5.053-12.266,13.75a40.95,40.95,0,0,0,14.776-6.76l3.872-2.755,4.164,2.288a78.109,78.109,0,1,0-40.555-68.5Z" transform="translate(-201.252 -79.191)" fill="#6c63ff"/>
  <path id="Path_2531" data-name="Path 2531" d="M517.353,453.611a85.639,85.639,0,1,1,44.481,75.134c-5.922,4.214-20.37,12.618-34.642,6.564l17.18-19.258a85.43,85.43,0,0,1-27.019-62.44Z" transform="translate(-201.252 -79.191)" fill="#fff"/>
  <path id="Path_2532" data-name="Path 2532" d="M673.555,453.179a85.676,85.676,0,0,0-78.1-85.335c2.49-.219,5.015-.337,7.567-.337a85.673,85.673,0,0,1,0,171.346c-2.548,0-5.068-.12-7.56-.338A85.677,85.677,0,0,0,673.555,453.179Z" transform="translate(-201.252 -79.191)" opacity="0.1"/>
  <rect id="Rectangle_83" data-name="Rectangle 83" width="61.218" height="5.685" transform="translate(352.58 356.903)" fill="#6c63ff"/>
  <rect id="Rectangle_84" data-name="Rectangle 84" width="106.698" height="5.685" transform="translate(352.58 376.569)" fill="#6c63ff"/>
  <rect id="Rectangle_85" data-name="Rectangle 85" width="106.593" height="5.685" transform="translate(352.58 396.235)" fill="#6c63ff"/>
  <path id="Path_2533" data-name="Path 2533" d="M426.46,480.238c-24.152-12.143-68.373-44.284-82.085-61.205-17.067-21.046,1.548-37.054,1.548-37.054,21.108-13.317,46.351,32.379,46.351,32.379l26.687,21.648C421.8,450.507,424.33,466,426.46,480.238Z" transform="translate(-201.252 -79.191)" opacity="0.2"/>
  <path id="Path_2534" data-name="Path 2534" d="M496.216,462.5s36.84,14.956,42.9-1.856-29.086-16.523-29.086-16.523l-13.8,1.955Z" transform="translate(-201.252 -79.191)" fill="#9f616a"/>
  <path id="Path_2535" data-name="Path 2535" d="M341.2,375.141s-18.611,16.009-1.553,37.052,81.326,65.66,95.451,66,51.063-13.8,51.063-13.8l14.451,2.644,2.724-27.13-21.288,2.078-60.041-6.507-34.46-27.961S362.3,361.828,341.2,375.141Z" transform="translate(-201.252 -79.191)" fill="#6c63ff"/>
  <path id="Path_2536" data-name="Path 2536" d="M207.748,488.809,211,564.889l-8.256-76.08Z" opacity="0.2"/>
</svg>
